<svg xmlns="http://www.w3.org/2000/svg" width="92.646" height="37" viewBox="0 0 92.646 37"><defs><style>.a{fill:#82008f;fill-rule:evenodd;}</style></defs><g transform="translate(-290 -820)"><path class="a" d="M328.236,820l-6.441,2.839v3.136l6.441-1.943Zm46.924,7.191a7.243,7.243,0,0,0-5.173,2.088V827.6h-4.512v17.819h4.632v-9.448c0-2.466,1.118-4.52,4.242-4.52,2.9,0,3.707,2.054,3.707,4.52v9.448h4.59V834.585C382.646,830.513,380.14,827.191,375.159,827.191Zm-25.469,7.173a4.393,4.393,0,0,1,4.512-3.252c2.2,0,3.821.931,4.4,3.252Zm4.476-7.173a9.227,9.227,0,0,0,0,18.453c4.4,0,7.408-2.356,8.568-5.788h-4.788a3.658,3.658,0,0,1-3.509,1.681c-2.74,0-4.32-1.35-4.783-3.624h13.578a12.145,12.145,0,0,0,.078-1.233C363.311,830.513,359.22,827.191,354.167,827.191Zm-17.826,25.661a4.073,4.073,0,1,1,4.128-4.072A3.944,3.944,0,0,1,336.341,852.852Zm1.5-15.8,6.525-5.6V827.6H328.7v4.148h9.03l-5.786,4.893,3.857,4.334c-5.017.3-8.105,3.735-8.105,7.848a8.72,8.72,0,0,0,17.406,0,8.533,8.533,0,0,0-2.277-6.091Zm-43.331-7.7V827.6H290v17.819h4.632V836c0-2.467,1.118-4.369,4.512-4.369h1.388v-4.258h-1A6.784,6.784,0,0,0,294.512,829.355Zm27.4,16.063h4.668V826.964l-4.668,1.123Zm-11.77-4.107a4.915,4.915,0,1,1,4.789-4.893A4.613,4.613,0,0,1,310.139,841.31Zm.078-14.119a9.274,9.274,0,0,0-9.493,9.227c0,5.341,3.629,9.227,8.994,9.227a7.582,7.582,0,0,0,5.323-2.205v1.978h4.512V836C319.554,831.112,315.619,827.191,310.217,827.191Z" transform="translate(0 0)"/></g></svg>