<svg xmlns="http://www.w3.org/2000/svg" width="140.131" height="57.797" viewBox="0 0 140.131 57.797"><defs><style>.a{fill:#82008f;fill-rule:evenodd;}</style></defs><path class="a" d="M347.834,820l-9.742,4.435v4.9l9.742-3.035Zm70.974,11.232a10.775,10.775,0,0,0-7.824,3.262v-2.626h-6.825V859.7h7.006V844.945c0-3.853,1.69-7.061,6.416-7.061,4.38,0,5.607,3.208,5.607,7.061V859.7h6.943V842.783C430.131,836.421,426.341,831.232,418.808,831.232Zm-38.522,11.2a6.668,6.668,0,0,1,6.825-5.08c3.326,0,5.78,1.454,6.652,5.08Zm6.77-11.2c-8.288,0-13.95,6.47-13.95,14.413,0,8,5.716,14.413,13.95,14.413,6.652,0,11.205-3.68,12.959-9.042h-7.243c-.991,1.69-2.563,2.626-5.307,2.626-4.144,0-6.534-2.108-7.234-5.661h20.538c.064-.7.118-1.227.118-1.927C400.887,836.421,394.7,831.232,387.056,831.232Zm-26.963,40.085a6.362,6.362,0,1,1,6.243-6.361A6.063,6.063,0,0,1,360.093,871.318Zm2.272-24.682,9.869-8.751v-6.016h-23.7v6.479h13.659l-8.751,7.643,5.834,6.77c-7.588.472-12.259,5.834-12.259,12.259a13.169,13.169,0,0,0,26.327,0,13.583,13.583,0,0,0-3.444-9.515Zm-65.54-12.023v-2.744H290V859.7h7.007V845c0-3.853,1.69-6.825,6.825-6.825h2.1v-6.652h-1.518A10.087,10.087,0,0,0,296.825,834.613ZM338.264,859.7h7.061V830.878l-7.061,1.754Zm-17.8-6.416c-4.253,0-7.234-3.09-7.234-7.643s2.981-7.706,7.234-7.706,7.243,3.153,7.243,7.706S324.724,853.288,320.462,853.288Zm.118-22.056a14.251,14.251,0,0,0-14.358,14.413c0,8.343,5.489,14.413,13.6,14.413a11.284,11.284,0,0,0,8.052-3.444v3.09H334.7V845A13.7,13.7,0,0,0,320.58,831.232Z" transform="translate(-290 -820)"/></svg>